<svg width="238" height="60" viewBox="0 0 238 60" fill="none" xmlns="http://www.w3.org/2000/svg">
<g id="is You">
<mask id="path-1-outside-1_1_173" maskUnits="userSpaceOnUse" x="0.0761719" y="0.643555" width="238" height="59" fill="black">
<rect fill="white" x="0.0761719" y="0.643555" width="238" height="59"/>
<path d="M14.5338 56.8179H2.07617V3.23201H14.5338V56.8179Z"/>
<path d="M55.4274 14.1184C55.061 14.7068 54.6702 15.1482 54.2549 15.4424C53.8641 15.7366 53.3512 15.8837 52.7161 15.8837C52.1542 15.8837 51.5436 15.7121 50.8841 15.3688C50.249 15.001 49.5162 14.5965 48.6857 14.1551C47.8796 13.7138 46.9514 13.3215 45.901 12.9782C44.8507 12.6105 43.6538 12.4266 42.3103 12.4266C39.9898 12.4266 38.2555 12.9292 37.1074 13.9345C35.9838 14.9152 35.422 16.2515 35.422 17.9433C35.422 19.0221 35.764 19.9171 36.4479 20.6281C37.1319 21.3392 38.0234 21.9521 39.1226 22.467C40.2463 22.9819 41.5164 23.46 42.9332 23.9014C44.3744 24.3182 45.84 24.7963 47.33 25.3357C48.82 25.8506 50.2734 26.4636 51.6901 27.1746C53.1313 27.8857 54.4015 28.7929 55.5007 29.8962C56.6243 30.9996 57.5281 32.3481 58.2121 33.9418C58.896 35.511 59.238 37.4112 59.238 39.6425C59.238 42.1189 58.8105 44.4359 57.9556 46.5935C57.1006 48.7512 55.8549 50.6392 54.2183 52.2574C52.6061 53.8511 50.6032 55.1138 48.2093 56.0456C45.84 56.9528 43.1408 57.4063 40.1119 57.4063C38.4509 57.4063 36.7532 57.2347 35.0189 56.8915C33.3091 56.5482 31.6481 56.0701 30.0359 55.4571C28.4238 54.8196 26.9093 54.0718 25.4926 53.2136C24.0758 52.3555 22.8423 51.3992 21.7919 50.3449L25.4559 44.534C25.749 44.1171 26.1276 43.7739 26.5918 43.5042C27.0803 43.2099 27.6055 43.0628 28.1673 43.0628C28.9001 43.0628 29.6329 43.2958 30.3657 43.7616C31.1229 44.2275 31.9656 44.7424 32.8938 45.3063C33.8465 45.8702 34.9335 46.3851 36.1548 46.851C37.3761 47.3169 38.8173 47.5498 40.4783 47.5498C42.7256 47.5498 44.4721 47.0594 45.7178 46.0787C46.9636 45.0734 47.5865 43.4919 47.5865 41.3343C47.5865 40.0838 47.2445 39.0663 46.5605 38.2817C45.8766 37.4971 44.9728 36.8473 43.8492 36.3324C42.75 35.8175 41.492 35.3639 40.0753 34.9716C38.6585 34.5793 37.2051 34.1502 35.7151 33.6844C34.2251 33.194 32.7717 32.6056 31.355 31.919C29.9382 31.208 28.668 30.2885 27.5444 29.1607C26.4452 28.0083 25.5536 26.5862 24.8697 24.8944C24.1857 23.1781 23.8438 21.0695 23.8438 18.5685C23.8438 16.558 24.2468 14.5965 25.0529 12.684C25.859 10.7715 27.0436 9.06748 28.607 7.57184C30.1703 6.07619 32.0877 4.88703 34.3594 4.00435C36.6311 3.09715 39.2325 2.64355 42.1637 2.64355C43.8003 2.64355 45.3881 2.77841 46.9269 3.04812C48.4902 3.2933 49.9681 3.67335 51.3604 4.18824C52.7527 4.67862 54.0473 5.27933 55.2442 5.99037C56.4656 6.6769 57.5525 7.4615 58.5052 8.34418L55.4274 14.1184Z"/>
<path d="M108.164 36.4428V56.8179H95.7801V36.4428L76.4341 3.23201H87.3529C88.4276 3.23201 89.2704 3.48945 89.881 4.00435C90.5161 4.49473 91.0413 5.13222 91.4565 5.91682L99.0044 21.5108C99.6395 22.7367 100.213 23.8891 100.726 24.9679C101.239 26.0223 101.691 27.0643 102.082 28.0941C102.449 27.0398 102.864 25.9855 103.328 24.9312C103.816 23.8523 104.378 22.7122 105.013 21.5108L112.488 5.91682C112.659 5.59807 112.866 5.27933 113.111 4.96058C113.355 4.64184 113.636 4.35987 113.953 4.11468C114.295 3.84497 114.674 3.63657 115.089 3.48945C115.529 3.31782 116.005 3.23201 116.518 3.23201H127.51L108.164 36.4428Z"/>
<path d="M181.812 30.0066C181.812 33.8805 181.141 37.4848 179.797 40.8194C178.478 44.1539 176.61 47.0594 174.191 49.5358C171.773 51.9877 168.854 53.9124 165.434 55.31C162.039 56.7076 158.265 57.4063 154.113 57.4063C149.96 57.4063 146.174 56.7076 142.754 55.31C139.334 53.9124 136.403 51.9877 133.961 49.5358C131.542 47.0594 129.662 44.1539 128.318 40.8194C126.999 37.4848 126.34 33.8805 126.34 30.0066C126.34 26.1326 126.999 22.5283 128.318 19.1938C129.662 15.8592 131.542 12.966 133.961 10.5141C136.403 8.06221 139.334 6.13749 142.754 4.73992C146.174 3.34234 149.96 2.64355 154.113 2.64355C158.265 2.64355 162.039 3.3546 165.434 4.77669C168.854 6.17427 171.773 8.09899 174.191 10.5509C176.61 13.0028 178.478 15.896 179.797 19.2305C181.141 22.5651 181.812 26.1571 181.812 30.0066ZM169.135 30.0066C169.135 27.3585 168.793 24.9802 168.109 22.8716C167.425 20.7384 166.436 18.9363 165.141 17.4652C163.871 15.9941 162.308 14.8662 160.451 14.0816C158.595 13.297 156.482 12.9047 154.113 12.9047C151.719 12.9047 149.581 13.297 147.701 14.0816C145.844 14.8662 144.269 15.9941 142.974 17.4652C141.704 18.9363 140.727 20.7384 140.043 22.8716C139.359 24.9802 139.017 27.3585 139.017 30.0066C139.017 32.6791 139.359 35.082 140.043 37.2151C140.727 39.3237 141.704 41.1136 142.974 42.5847C144.269 44.0559 145.844 45.1837 147.701 45.9683C149.581 46.7284 151.719 47.1084 154.113 47.1084C156.482 47.1084 158.595 46.7284 160.451 45.9683C162.308 45.1837 163.871 44.0559 165.141 42.5847C166.436 41.1136 167.425 39.3237 168.109 37.2151C168.793 35.082 169.135 32.6791 169.135 30.0066Z"/>
<path d="M212.477 46.9981C214.138 46.9981 215.615 46.7284 216.91 46.189C218.229 45.6251 219.341 44.8282 220.244 43.7984C221.148 42.7686 221.832 41.5182 222.296 40.047C222.785 38.5514 223.029 36.8596 223.029 34.9716V3.23201H235.413V34.9716C235.413 38.2571 234.876 41.273 233.801 44.0191C232.751 46.7652 231.236 49.1312 229.258 51.1173C227.279 53.1033 224.873 54.648 222.04 55.7513C219.206 56.8547 216.019 57.4063 212.477 57.4063C208.91 57.4063 205.71 56.8547 202.877 55.7513C200.044 54.648 197.637 53.1033 195.659 51.1173C193.68 49.1312 192.166 46.7652 191.116 44.0191C190.065 41.273 189.54 38.2571 189.54 34.9716V3.23201H201.924V34.9348C201.924 36.8228 202.156 38.5146 202.621 40.0102C203.109 41.4814 203.805 42.7441 204.709 43.7984C205.613 44.8282 206.712 45.6251 208.007 46.189C209.326 46.7284 210.816 46.9981 212.477 46.9981Z"/>
</mask>
<path d="M14.5338 56.8179H2.07617V3.23201H14.5338V56.8179Z" stroke="white" stroke-width="4" mask="url(#path-1-outside-1_1_173)"/>
<path d="M55.4274 14.1184C55.061 14.7068 54.6702 15.1482 54.2549 15.4424C53.8641 15.7366 53.3512 15.8837 52.7161 15.8837C52.1542 15.8837 51.5436 15.7121 50.8841 15.3688C50.249 15.001 49.5162 14.5965 48.6857 14.1551C47.8796 13.7138 46.9514 13.3215 45.901 12.9782C44.8507 12.6105 43.6538 12.4266 42.3103 12.4266C39.9898 12.4266 38.2555 12.9292 37.1074 13.9345C35.9838 14.9152 35.422 16.2515 35.422 17.9433C35.422 19.0221 35.764 19.9171 36.4479 20.6281C37.1319 21.3392 38.0234 21.9521 39.1226 22.467C40.2463 22.9819 41.5164 23.46 42.9332 23.9014C44.3744 24.3182 45.84 24.7963 47.33 25.3357C48.82 25.8506 50.2734 26.4636 51.6901 27.1746C53.1313 27.8857 54.4015 28.7929 55.5007 29.8962C56.6243 30.9996 57.5281 32.3481 58.2121 33.9418C58.896 35.511 59.238 37.4112 59.238 39.6425C59.238 42.1189 58.8105 44.4359 57.9556 46.5935C57.1006 48.7512 55.8549 50.6392 54.2183 52.2574C52.6061 53.8511 50.6032 55.1138 48.2093 56.0456C45.84 56.9528 43.1408 57.4063 40.1119 57.4063C38.4509 57.4063 36.7532 57.2347 35.0189 56.8915C33.3091 56.5482 31.6481 56.0701 30.0359 55.4571C28.4238 54.8196 26.9093 54.0718 25.4926 53.2136C24.0758 52.3555 22.8423 51.3992 21.7919 50.3449L25.4559 44.534C25.749 44.1171 26.1276 43.7739 26.5918 43.5042C27.0803 43.2099 27.6055 43.0628 28.1673 43.0628C28.9001 43.0628 29.6329 43.2958 30.3657 43.7616C31.1229 44.2275 31.9656 44.7424 32.8938 45.3063C33.8465 45.8702 34.9335 46.3851 36.1548 46.851C37.3761 47.3169 38.8173 47.5498 40.4783 47.5498C42.7256 47.5498 44.4721 47.0594 45.7178 46.0787C46.9636 45.0734 47.5865 43.4919 47.5865 41.3343C47.5865 40.0838 47.2445 39.0663 46.5605 38.2817C45.8766 37.4971 44.9728 36.8473 43.8492 36.3324C42.75 35.8175 41.492 35.3639 40.0753 34.9716C38.6585 34.5793 37.2051 34.1502 35.7151 33.6844C34.2251 33.194 32.7717 32.6056 31.355 31.919C29.9382 31.208 28.668 30.2885 27.5444 29.1607C26.4452 28.0083 25.5536 26.5862 24.8697 24.8944C24.1857 23.1781 23.8438 21.0695 23.8438 18.5685C23.8438 16.558 24.2468 14.5965 25.0529 12.684C25.859 10.7715 27.0436 9.06748 28.607 7.57184C30.1703 6.07619 32.0877 4.88703 34.3594 4.00435C36.6311 3.09715 39.2325 2.64355 42.1637 2.64355C43.8003 2.64355 45.3881 2.77841 46.9269 3.04812C48.4902 3.2933 49.9681 3.67335 51.3604 4.18824C52.7527 4.67862 54.0473 5.27933 55.2442 5.99037C56.4656 6.6769 57.5525 7.4615 58.5052 8.34418L55.4274 14.1184Z" stroke="white" stroke-width="4" mask="url(#path-1-outside-1_1_173)"/>
<path d="M108.164 36.4428V56.8179H95.7801V36.4428L76.4341 3.23201H87.3529C88.4276 3.23201 89.2704 3.48945 89.881 4.00435C90.5161 4.49473 91.0413 5.13222 91.4565 5.91682L99.0044 21.5108C99.6395 22.7367 100.213 23.8891 100.726 24.9679C101.239 26.0223 101.691 27.0643 102.082 28.0941C102.449 27.0398 102.864 25.9855 103.328 24.9312C103.816 23.8523 104.378 22.7122 105.013 21.5108L112.488 5.91682C112.659 5.59807 112.866 5.27933 113.111 4.96058C113.355 4.64184 113.636 4.35987 113.953 4.11468C114.295 3.84497 114.674 3.63657 115.089 3.48945C115.529 3.31782 116.005 3.23201 116.518 3.23201H127.51L108.164 36.4428Z" stroke="white" stroke-width="4" mask="url(#path-1-outside-1_1_173)"/>
<path d="M181.812 30.0066C181.812 33.8805 181.141 37.4848 179.797 40.8194C178.478 44.1539 176.61 47.0594 174.191 49.5358C171.773 51.9877 168.854 53.9124 165.434 55.31C162.039 56.7076 158.265 57.4063 154.113 57.4063C149.96 57.4063 146.174 56.7076 142.754 55.31C139.334 53.9124 136.403 51.9877 133.961 49.5358C131.542 47.0594 129.662 44.1539 128.318 40.8194C126.999 37.4848 126.34 33.8805 126.34 30.0066C126.34 26.1326 126.999 22.5283 128.318 19.1938C129.662 15.8592 131.542 12.966 133.961 10.5141C136.403 8.06221 139.334 6.13749 142.754 4.73992C146.174 3.34234 149.96 2.64355 154.113 2.64355C158.265 2.64355 162.039 3.3546 165.434 4.77669C168.854 6.17427 171.773 8.09899 174.191 10.5509C176.61 13.0028 178.478 15.896 179.797 19.2305C181.141 22.5651 181.812 26.1571 181.812 30.0066ZM169.135 30.0066C169.135 27.3585 168.793 24.9802 168.109 22.8716C167.425 20.7384 166.436 18.9363 165.141 17.4652C163.871 15.9941 162.308 14.8662 160.451 14.0816C158.595 13.297 156.482 12.9047 154.113 12.9047C151.719 12.9047 149.581 13.297 147.701 14.0816C145.844 14.8662 144.269 15.9941 142.974 17.4652C141.704 18.9363 140.727 20.7384 140.043 22.8716C139.359 24.9802 139.017 27.3585 139.017 30.0066C139.017 32.6791 139.359 35.082 140.043 37.2151C140.727 39.3237 141.704 41.1136 142.974 42.5847C144.269 44.0559 145.844 45.1837 147.701 45.9683C149.581 46.7284 151.719 47.1084 154.113 47.1084C156.482 47.1084 158.595 46.7284 160.451 45.9683C162.308 45.1837 163.871 44.0559 165.141 42.5847C166.436 41.1136 167.425 39.3237 168.109 37.2151C168.793 35.082 169.135 32.6791 169.135 30.0066Z" stroke="white" stroke-width="4" mask="url(#path-1-outside-1_1_173)"/>
<path d="M212.477 46.9981C214.138 46.9981 215.615 46.7284 216.91 46.189C218.229 45.6251 219.341 44.8282 220.244 43.7984C221.148 42.7686 221.832 41.5182 222.296 40.047C222.785 38.5514 223.029 36.8596 223.029 34.9716V3.23201H235.413V34.9716C235.413 38.2571 234.876 41.273 233.801 44.0191C232.751 46.7652 231.236 49.1312 229.258 51.1173C227.279 53.1033 224.873 54.648 222.04 55.7513C219.206 56.8547 216.019 57.4063 212.477 57.4063C208.91 57.4063 205.71 56.8547 202.877 55.7513C200.044 54.648 197.637 53.1033 195.659 51.1173C193.68 49.1312 192.166 46.7652 191.116 44.0191C190.065 41.273 189.54 38.2571 189.54 34.9716V3.23201H201.924V34.9348C201.924 36.8228 202.156 38.5146 202.621 40.0102C203.109 41.4814 203.805 42.7441 204.709 43.7984C205.613 44.8282 206.712 45.6251 208.007 46.189C209.326 46.7284 210.816 46.9981 212.477 46.9981Z" stroke="white" stroke-width="4" mask="url(#path-1-outside-1_1_173)"/>
</g>
</svg>
