<svg width="68" height="80" viewBox="0 0 68 80" fill="none" xmlns="http://www.w3.org/2000/svg">
<path id="is" d="M9.2759 1C11.5079 1 13.3799 1.76685 14.8918 3.30056C16.4758 4.83427 17.2678 6.73315 17.2678 8.99719C17.2678 11.2612 16.4758 13.1601 14.8918 14.6938C13.3799 16.2275 11.5079 16.9944 9.2759 16.9944C7.11593 16.9944 5.27995 16.2275 3.76797 14.6938C2.25599 13.1601 1.5 11.2612 1.5 8.99719C1.5 6.73315 2.25599 4.83427 3.76797 3.30056C5.27995 1.76685 7.11593 1 9.2759 1ZM16.2958 24.5534V77.6854H2.25599V24.5534H16.2958ZM60.6681 38.9045C58.1481 37.736 55.8081 36.8596 53.6482 36.2753C51.4882 35.618 49.1842 35.2893 46.7362 35.2893C44.9363 35.2893 43.5323 35.6545 42.5243 36.3848C41.5883 37.0421 41.1203 37.9916 41.1203 39.2331C41.1203 40.1096 41.6963 40.9494 42.8483 41.7528C44.0723 42.5562 46.0163 43.4326 48.6802 44.382C53.0722 45.9888 57.1401 48.2528 60.8841 51.1742C64.628 54.0225 66.5 57.7472 66.5 62.3483C66.5 67.6067 64.628 71.6966 60.8841 74.618C57.2121 77.5393 51.8122 79 44.6843 79C42.4523 79 39.4643 78.5618 35.7204 77.6854C32.0484 76.809 28.9885 75.4213 26.5405 73.5225L30.7524 63.2247C33.2724 64.3933 35.6844 65.3062 37.9884 65.9635C40.3643 66.5478 42.5243 66.8399 44.4683 66.8399C47.0602 66.8399 49.0402 66.4747 50.4082 65.7444C51.7762 65.014 52.4602 64.0646 52.4602 62.8961C52.4602 61.4354 51.7762 60.1208 50.4082 58.9522C49.0402 57.7837 46.8802 56.7247 43.9283 55.7753C39.7523 54.3876 35.7924 52.4157 32.0484 49.8595C28.3765 47.2303 26.5405 43.7247 26.5405 39.3427C26.5405 34.3034 28.3765 30.3595 32.0484 27.5112C35.7204 24.5899 40.6883 23.1292 46.9522 23.1292C49.1842 23.1292 52.0642 23.6039 55.5921 24.5534C59.1201 25.5028 62.216 26.8904 64.88 28.7163L60.6681 38.9045Z" stroke="black" stroke-width="1.5"/>
</svg>
